<?xml version="1.0" encoding="UTF-8"?>
<svg xmlns="http://www.w3.org/2000/svg" xmlns:xlink="http://www.w3.org/1999/xlink" width="375pt" height="374.999991pt" viewBox="0 0 375 374.999991" version="1.2">
<defs>
<clipPath id="clip1">
  <path d="M 125.503906 81.441406 L 249.253906 81.441406 L 249.253906 226.191406 L 125.503906 226.191406 Z M 125.503906 81.441406 "/>
</clipPath>
</defs>
<g id="surface1">
<g clip-path="url(#clip1)" clip-rule="nonzero">
<path style=" stroke:none;fill-rule:nonzero;fill:rgb(30.979919%,43.528748%,100%);fill-opacity:1;" d="M 127.191406 118.023438 C 126.667969 118.355469 126.257812 118.789062 125.957031 119.332031 C 125.65625 119.875 125.507812 120.453125 125.503906 121.074219 L 125.503906 188.195312 C 125.503906 188.828125 125.660156 189.417969 125.972656 189.96875 C 126.285156 190.519531 126.714844 190.957031 127.257812 191.28125 L 185.230469 225.648438 C 185.789062 225.972656 186.390625 226.132812 187.035156 226.132812 C 187.679688 226.132812 188.28125 225.972656 188.839844 225.648438 L 247.359375 191.265625 C 247.90625 190.945312 248.335938 190.511719 248.652344 189.960938 C 248.96875 189.40625 249.128906 188.816406 249.128906 188.179688 L 249.242188 121.054688 C 249.238281 120.429688 249.082031 119.84375 248.777344 119.300781 C 248.472656 118.753906 248.058594 118.316406 247.527344 117.988281 L 188.910156 82.007812 C 188.335938 81.648438 187.710938 81.46875 187.035156 81.46875 C 186.359375 81.46875 185.734375 81.648438 185.160156 82.007812 Z M 187.054688 89.285156 L 242.097656 123.082031 L 241.996094 186.140625 L 187.054688 218.398438 L 132.652344 186.148438 L 132.652344 123.074219 Z M 187.054688 89.285156 "/>
</g>
<path style=" stroke:none;fill-rule:nonzero;fill:rgb(30.979919%,43.528748%,100%);fill-opacity:1;" d="M 140.660156 183.332031 C 153.730469 190.855469 169.152344 199.757812 184.550781 208.703125 C 186.457031 209.8125 188.0625 209.808594 189.941406 208.703125 C 194.578125 205.988281 199.222656 203.277344 203.871094 200.570312 C 213.757812 194.804688 223.984375 188.84375 233.96875 182.871094 C 234.953125 182.277344 235.75 180.390625 235.867188 178.988281 C 236.050781 176.820312 236.019531 174.585938 235.992188 172.425781 C 235.972656 170.894531 235.953125 169.316406 235.992188 167.753906 C 236.042969 166.292969 235.59375 165.539062 234.269531 164.757812 C 229.183594 161.804688 224.128906 158.816406 219.097656 155.796875 C 215.070312 153.402344 211.035156 151.015625 207 148.636719 C 201.382812 145.332031 195.734375 142.066406 190.042969 138.777344 L 181.941406 134.089844 L 182.554688 133.492188 C 185.300781 130.832031 187.703125 130.53125 190.851562 132.414062 C 204.398438 140.578125 218.277344 148.523438 230.210938 155.3125 C 231.550781 156.074219 233.609375 156.390625 234.304688 155.945312 C 235.355469 155.257812 236.132812 153.210938 236.175781 151.804688 C 236.285156 147.921875 236.269531 143.964844 236.257812 140.125 C 236.257812 136.558594 236.234375 132.878906 236.324219 129.253906 C 236.386719 126.683594 235.4375 125.113281 233.039062 123.835938 C 230.097656 122.261719 227.164062 120.566406 224.328125 118.921875 L 217.199219 114.816406 C 207.929688 109.488281 198.675781 104.148438 189.429688 98.792969 C 187.851562 97.882812 186.621094 97.871094 185.121094 98.738281 C 180.15625 101.648438 175.179688 104.558594 170.199219 107.460938 C 160.570312 113.101562 150.609375 118.90625 140.859375 124.710938 C 140.28125 125.121094 139.804688 125.628906 139.429688 126.230469 C 139.054688 126.835938 138.8125 127.488281 138.703125 128.191406 C 138.433594 132.195312 138.433594 136.203125 138.703125 140.210938 C 138.835938 141.269531 139.328125 142.117188 140.175781 142.761719 C 145.4375 146.109375 150.894531 149.328125 155.53125 152.023438 C 164.488281 157.246094 173.464844 162.457031 182.457031 167.660156 L 192.734375 173.617188 L 192.078125 174.210938 C 189.859375 176.253906 187.316406 177.792969 183.859375 175.339844 C 181.566406 173.78125 179.195312 172.34375 176.753906 171.03125 C 175.769531 170.484375 174.792969 169.929688 173.820312 169.363281 L 167.441406 165.65625 C 159.945312 161.277344 152.195312 156.75 144.484375 152.441406 C 143.558594 151.960938 142.570312 151.722656 141.527344 151.726562 C 140.992188 151.703125 140.484375 151.800781 139.992188 152.015625 C 139.191406 152.417969 138.519531 154.464844 138.488281 155.925781 C 138.398438 160.355469 138.414062 164.824219 138.433594 169.171875 C 138.433594 172.554688 138.457031 175.9375 138.433594 179.324219 C 138.394531 181.246094 139.046875 182.402344 140.660156 183.332031 Z M 140.660156 183.332031 "/>
</g>
</svg>
